<?xml version="1.0" encoding="UTF-8"?>
<svg width="190px" height="232px" viewBox="0 0 190 232" version="1.1" xmlns="http://www.w3.org/2000/svg" xmlns:xlink="http://www.w3.org/1999/xlink">
    <!-- Generator: sketchtool 53.2 (72643) - https://sketchapp.com -->
    <title>248BD104-0BEC-48EE-8FB6-EDF20E0463D7@1x</title>
    <desc>Created with sketchtool.</desc>
    <g id="Web" stroke="none" stroke-width="1" fill="none" fill-rule="evenodd">
        <g id="1.0-Login-screen" transform="translate(-1539.000000, -63.000000)">
            <g id="Login-logo" transform="translate(1539.000000, 63.000000)">
                <g id="logo-icon">
                    <path d="M59.7554115,212.897441 C57.7592795,216.32786 59.3714006,220.665378 63.0847134,222.108818 C64.0266269,222.472378 64.9757859,222.821539 65.9358131,223.156302 C65.9756633,223.167101 66.0155135,223.1743 66.0517409,223.188698 C67.3885335,223.649447 68.7434398,224.081399 70.1092144,224.480955 C70.2432559,224.52055 70.3809202,224.545747 70.511339,224.585343 C71.7829222,224.948903 73.0689964,225.290865 74.3659388,225.60043 C74.7571952,225.69402 75.155697,225.762412 75.5469534,225.852402 C76.5975492,226.086376 77.648145,226.32035 78.7132318,226.518328 C79.390685,226.640715 80.0790064,226.734304 80.763705,226.842292 C81.557086,226.968278 82.3432215,227.112262 83.1438479,227.22025 C84.6364185,227.418229 86.1362346,227.576611 87.6505417,227.698997 C88.1432349,227.742193 88.6250599,227.724195 89.0887711,227.666601 C90.0198164,227.537015 90.8965205,227.216651 91.6717877,226.741504 C93.6063331,225.557235 94.910521,223.415473 94.910521,220.974944 L94.910521,220.971344 C94.910521,219.229138 94.2403134,217.630915 93.1317536,216.435848 C92.8528023,216.137081 92.5484918,215.863512 92.2188221,215.618739 C91.1428671,214.816028 89.8096972,214.322883 88.3533541,214.283287 C85.9985704,214.218494 83.6763913,213.710951 81.3578351,213.304196 C81.1585841,213.271799 80.9629559,213.235803 80.7709505,213.199807 C78.6770044,212.800252 76.6084174,212.328704 74.5796807,211.759967 C74.2282745,211.659179 73.8841138,211.543991 73.5399531,211.443203 C71.6959763,210.892464 69.8809815,210.280532 68.0985914,209.603807 C68.0949686,209.600207 68.0913459,209.600207 68.0877231,209.600207 C65.1025819,208.430337 61.6972024,209.549813 60.0959495,212.310706 L59.7554115,212.897441 Z" id="Fill-11" fill="#002245"></path>
                    <path d="M183.169264,133.646482 L183.169264,133.642882 C183.187378,133.354914 183.219982,133.070546 183.194623,132.771779 C182.998995,130.406842 182.683816,128.074301 182.307051,125.770556 C182.245464,125.403397 182.191123,125.036238 182.129536,124.676278 C181.73828,122.473323 181.2637,120.306363 180.705798,118.161002 C180.607984,117.768645 180.499301,117.372689 180.390619,116.980333 C179.800112,114.816973 179.144395,112.67881 178.394487,110.580243 C178.318409,110.371467 178.235086,110.166289 178.155386,109.957512 C177.390987,107.869744 176.554133,105.821572 175.637579,103.812995 C175.557878,103.643814 175.492669,103.474632 175.416591,103.309051 C174.467432,101.264478 173.431327,99.2631001 172.330013,97.3049176 C172.16699,97.0133499 172.003966,96.7217823 171.83732,96.4338143 C170.721515,94.4972294 169.536877,92.6038396 168.283408,90.7608443 C167.555236,89.691763 159.186697,79.5084939 158.650531,78.957755 C157.020296,77.2767417 155.321229,75.6641208 153.560576,74.1162927 C153.441025,74.0119043 153.317852,73.9039162 153.198301,73.8031274 C147.680862,69.0048603 141.569292,64.8689196 134.975898,61.5320901 C134.946916,61.5176917 134.92518,61.5032933 134.896198,61.4924945 C125.991492,57.0001934 116.224574,53.9549316 105.914244,52.6806731 L105.381701,52.6158803 C103.74422,52.4251015 102.092249,52.2775179 100.433032,52.1695298 L100.2845,52.158731 C98.7339652,52.0651414 97.179808,52.0183466 95.6111598,52.0003486 C95.4300225,52.0003486 95.2488853,51.9931494 95.0677481,51.9931494 C93.6367642,51.9859502 92.194912,52.0291454 90.7458143,52.0939382 C90.4559948,52.1083366 90.1661753,52.1083366 89.8763557,52.1263346 C88.1881569,52.212725 86.4890899,52.3495099 84.7827774,52.5402887 L84.7791547,52.5402887 C82.5258078,52.7886611 80.3086883,53.1558203 78.1096826,53.5733739 C77.5843847,53.6741628 77.0627096,53.7749516 76.5410344,53.8829396 C74.4398428,54.3220908 72.3603876,54.8260348 70.3171599,55.4127697 C69.7954847,55.5639529 69.2883006,55.7403333 68.7702481,55.8915165 C67.1798634,56.3594646 65.6220834,56.9210022 64.0679262,57.4969382 C63.4520597,57.7237131 62.8325704,57.9432887 62.2239494,58.1844619 C60.4162001,58.9007823 58.6374327,59.6818956 56.89127,60.5134033 C56.2101941,60.8337677 55.5436091,61.1793293 54.8734015,61.5212913 C53.7213688,62.1116258 52.5584679,62.694761 51.4462855,63.3534879 C50.6855092,63.8070375 49.895751,64.2137923 49.1385974,64.6709416 C48.040906,65.3260688 46.9975556,66.0639869 45.9288461,66.7623093 C45.0956149,67.3130482 44.2297791,67.8241914 43.4219071,68.403727 L43.4182844,68.403727 C29.785898,78.129847 19.0299706,91.6211487 12.6901683,107.265011 C12.4583126,107.848147 12.2192115,108.431282 11.9982241,109.018017 C11.2591843,110.969 10.5636174,112.941581 9.96224189,114.953758 C9.91876896,115.11574 9.86805054,115.274122 9.81733212,115.436104 C9.81008664,115.464901 9.80646389,115.497297 9.7992184,115.526094 C9.10727427,117.891031 8.5276352,120.270367 8.04218748,122.653303 C7.56398525,125.047037 7.17635162,127.473167 6.90102306,129.931694 C6.80320897,130.770401 6.75611329,131.605508 6.68365841,132.440616 C6.58222157,133.621285 6.5025212,134.798354 6.45180278,135.979023 C6.40108436,137.030106 6.35398869,138.084789 6.34312046,139.128673 C6.32862948,140.845682 6.36123418,142.562692 6.44818004,144.268902 C6.48803023,145.161603 6.56410785,146.047105 6.63293999,146.932606 C6.75611329,148.437239 6.91551404,149.938273 7.10751948,151.435706 C7.20895632,152.191622 7.30677041,152.947538 7.42632097,153.699855 C7.70889501,155.488856 8.05667845,157.267059 8.45155757,159.034463 C8.5855991,159.628397 8.71601789,160.22593 8.86092766,160.819864 C9.33912989,162.756449 9.87529603,164.678636 10.4802943,166.575625 C10.6614315,167.137163 10.8570597,167.680702 11.0418197,168.231441 C11.588854,169.829664 12.1793613,171.409888 12.8169643,172.972115 C13.1430113,173.778425 13.487172,174.581136 13.8385782,175.376648 C14.4037263,176.654506 15.0087245,177.921565 15.6354593,179.174226 C16.1100388,180.117321 16.5809955,181.056817 17.0845569,181.981914 C17.2982989,182.367071 17.5301545,182.74143 17.7475191,183.122987 C22.8447202,192.082393 29.4707193,200.073505 37.277733,206.736365 C40.4621251,209.457663 45.3890572,208.525367 47.4866261,204.911368 C49.1385974,202.071283 48.479258,198.464484 45.9469598,196.358718 C45.081124,195.642397 44.2986112,194.976471 43.8385227,194.551718 C43.5160985,194.252952 43.211788,193.943386 42.8929865,193.63742 C41.6503852,192.445952 40.4331432,191.225688 39.2847333,189.94063 C38.9840455,189.602268 38.6616213,189.278304 38.3609335,188.932742 C37.0531229,187.442508 35.8141443,185.89468 34.6258843,184.300057 C34.30346,183.868105 33.9882813,183.428954 33.6767253,182.989802 C32.5065789,181.348385 31.3799055,179.67817 30.3401779,177.943163 C27.8151252,173.717232 25.7103108,169.221331 24.0547167,164.513054 L24.0547167,164.505855 C23.6743286,163.422375 23.3736408,162.306499 23.0475939,161.197822 C22.6961877,160.024353 22.3085541,158.865281 22.0151118,157.666614 C21.5151731,155.63284 21.1094257,153.56307 20.779756,151.468103 L20.779756,151.460904 C20.7399058,151.216131 20.6819419,150.971358 20.6493372,150.726585 L20.6493372,150.722985 C20.638469,150.643794 20.6348462,150.561003 20.623978,150.481812 C20.2943083,148.156471 20.0588299,145.802332 19.9465248,143.415797 C19.830597,140.946471 19.8378425,138.448349 19.9718841,135.925029 C20.0841891,133.826462 20.3196675,131.756692 20.609487,129.70132 C20.6710737,129.269368 20.7254148,128.841015 20.794247,128.412663 C21.1094257,126.454481 21.4934366,124.517896 21.9607706,122.610107 C22.0585847,122.196153 22.1781353,121.792998 22.2868176,121.386243 C22.7324151,119.698031 23.2287311,118.035015 23.7902564,116.397197 C23.9061842,116.048036 24.0076211,115.698875 24.1344171,115.353313 C24.7611519,113.600308 25.4748325,111.879699 26.231986,110.184287 C26.4819553,109.62275 26.7391702,109.061212 27.0072533,108.506874 C27.7716523,106.897852 28.5759015,105.314028 29.4526056,103.7698 C29.7677843,103.219061 30.111945,102.68632 30.4416147,102.139181 C31.0973314,101.041303 31.7928983,99.9650222 32.5065789,98.8995405 C32.93044,98.2696104 33.3506783,97.6324812 33.7962758,97.0133499 C34.7236984,95.7174938 35.705462,94.4540342 36.7162076,93.2193713 C37.2849785,92.5210488 37.8791085,91.844324 38.4732386,91.1639995 C39.1543145,90.3900855 39.8571269,89.6341694 40.5708075,88.8890521 C41.5525711,87.8595665 42.559694,86.8624772 43.5994216,85.8869855 C44.2696293,85.2606551 44.9470824,84.6379242 45.6390266,84.0331914 C46.4034256,83.3636657 47.1714473,82.7085385 47.9648283,82.0714092 C49.0987473,81.1571108 50.2580254,80.2716091 51.4499082,79.4221034 C51.4499082,79.4221034 51.453531,79.4221034 51.453531,79.4185038 C52.21793,78.8713646 52.99682,78.3566218 53.7829555,77.8382793 C53.8372966,77.8022833 53.8880151,77.7734865 53.9423562,77.7374905 C64.7055292,70.6786744 77.3126789,66.2367677 90.8327602,65.5204472 C96.7813061,65.207282 102.570451,65.6608316 108.171214,66.6579209 C108.493638,66.7155145 108.819685,66.7875065 109.138487,66.8486997 C111.406324,67.2842514 113.634312,67.8133926 115.82245,68.4469222 C116.373107,68.6053047 116.923764,68.7708863 117.470798,68.9400675 C123.589613,70.8658536 129.357022,73.5259582 134.689701,76.8555885 C134.762156,76.8987837 134.834611,76.9491781 134.910689,76.9959729 L134.910689,76.9995725 C136.685833,78.111849 138.413882,79.281719 140.083967,80.5379795 C140.49696,80.8511448 140.888216,81.1859076 141.293964,81.506272 L141.297587,81.506272 C144.793535,84.2491674 148.039514,87.2800308 150.99205,90.5880635 C151.144205,90.7644439 151.292738,90.9408243 151.448516,91.1172047 C151.448516,91.1208043 151.452139,91.1208043 151.452139,91.1244039 C152.828781,92.6938296 154.143837,94.3100501 155.386439,95.9910635 L155.390061,95.9910635 C155.444403,96.0702547 155.495121,96.1458463 155.549462,96.2214379 C155.553085,96.2250375 155.556708,96.2286371 155.56033,96.2322367 C156.429789,97.4237044 157.255775,98.6475685 158.056401,99.885831 C169.971607,118.470567 173.453064,141.990355 165.910511,164.00551 C164.791083,167.284746 166.428563,170.859149 169.663674,172.144207 L169.674542,172.147806 C173.369741,173.616443 177.582992,171.705055 178.850953,167.954272 C182.669325,156.640728 184.020609,144.992422 183.169264,133.646482" id="Fill-12" fill="#002245"></path>
                    <path d="M85.8786575,219.667569 C84.7990798,218.864858 83.4695326,218.375313 82.0131895,218.332118 C79.6584058,218.267325 77.3362267,217.759781 75.0176705,217.353026 C74.8184195,217.32063 74.6264141,217.284634 74.4307859,217.248638 C72.3368398,216.849082 70.2682529,216.377535 68.2395161,215.808798 C67.8881099,215.708009 67.5439492,215.592822 67.1997885,215.492033 C65.3558118,214.944894 63.5408169,214.332962 61.7584268,213.652637 C61.754804,213.649038 61.7511813,213.649038 61.7475585,213.649038 C58.7624173,212.479167 55.3570378,213.598643 53.7557849,216.359537 L53.4152469,216.946271 C51.4191149,220.37669 53.0276133,224.714209 56.7445488,226.157648 C57.6864623,226.521208 58.6356213,226.870369 59.5956485,227.205132 C59.6354987,227.215931 59.6753489,227.22673 59.7115763,227.241128 C61.0483689,227.698277 62.406898,228.133829 63.7690498,228.529785 C63.9030913,228.569381 64.0407556,228.594578 64.1711744,228.634173 C65.4427576,228.997733 66.7288318,229.343295 68.0257742,229.649261 C68.4170306,229.74285 68.8155324,229.811243 69.2067888,229.901233 C70.2573846,230.135207 71.3116032,230.37278 72.3730672,230.567159 C73.0505204,230.693145 73.7388418,230.783135 74.4235404,230.891123 C75.2169214,231.017109 76.0030569,231.161093 76.8036834,231.269081 C78.296254,231.467059 79.79607,231.625441 81.3103771,231.747828 C81.8030703,231.787423 82.2848953,231.773025 82.7486066,231.715431 C83.6832745,231.589445 84.5563559,231.265481 85.3316231,230.790334 C87.2661685,229.606066 88.5703564,227.464303 88.5703564,225.023774 L88.5703564,225.020175 C88.5703564,223.277968 87.9001488,221.683345 86.7915891,220.488278 C86.5126378,220.189511 86.2083272,219.912342 85.8786575,219.667569" id="Fill-13" fill="#FF6143" opacity="0.15"></path>
                    <path d="M176.829461,137.692433 C176.847575,137.404465 176.88018,137.120096 176.854821,136.821329 C176.659193,134.456392 176.344014,132.123851 175.967248,129.816507 C175.905662,129.452948 175.851321,129.085788 175.789734,128.725828 C175.398478,126.522873 174.923898,124.355914 174.365995,122.210552 C174.268181,121.818195 174.159499,121.422239 174.050817,121.029883 C173.460309,118.866523 172.804593,116.728361 172.054685,114.629794 C171.978607,114.421017 171.895284,114.21584 171.815584,114.007063 C171.051185,111.922894 170.214331,109.871122 169.297776,107.862545 C169.218076,107.693364 169.152867,107.524183 169.076789,107.358601 C168.12763,105.314028 167.091525,103.31265 165.990211,101.354468 C165.827187,101.0629 165.664164,100.771333 165.497518,100.483365 C164.381712,98.5467797 163.197075,96.6533899 161.943606,94.8103946 C161.215434,93.7413133 152.846895,83.5580442 152.310729,83.0073053 C150.680494,81.326292 148.981427,79.7136711 147.220773,78.165843 C147.101223,78.0614545 146.978049,77.9534665 146.858499,77.8526777 C141.34106,73.0544106 135.22949,68.9184699 128.636096,65.5816404 C128.607114,65.567242 128.585377,65.5564432 128.556395,65.5420448 C119.65169,61.0461441 109.884772,58.0044819 99.5744419,56.7302234 L99.0418985,56.6654306 C97.4044181,56.4746518 95.7524468,56.3270681 94.0932299,56.2190801 L93.9446974,56.2082813 C92.3941629,56.1146917 90.8400057,56.0678969 89.2713574,56.0498989 C89.0902202,56.0498989 88.909083,56.0426997 88.7279458,56.0426997 C87.2969619,56.0355005 85.8551097,56.0786957 84.406012,56.1434885 C84.1161925,56.1578869 83.8263729,56.1578869 83.5365534,56.1758849 C81.8483546,56.2622753 80.1492876,56.3990602 78.4429751,56.589839 L78.4393524,56.589839 C76.1860055,56.8382114 73.968886,57.2053706 71.7698803,57.6229242 C71.2445824,57.7237131 70.7229073,57.8245019 70.2012321,57.9324899 C68.1000405,58.3716411 66.0205853,58.8755851 63.9773576,59.46232 C63.4556824,59.6135032 62.9484982,59.7898836 62.4304458,59.9410668 C60.8400611,60.4090148 59.2822811,60.9705525 57.7281239,61.5464885 C57.1122574,61.7732633 56.4927681,61.992839 55.8841471,62.2340122 C54.0763978,62.9503326 52.2976304,63.7314459 50.5514677,64.5629536 C49.8703918,64.883318 49.2038068,65.2288796 48.5335992,65.5708416 C47.3779438,66.1611761 46.2186656,66.7443113 45.1064832,67.4030382 C44.3420841,67.8565878 43.5559487,68.2633426 42.7987951,68.7204919 C41.7011036,69.3756191 40.6577533,70.1135372 39.5890438,70.8118596 C38.7558126,71.3625985 37.8899768,71.8737417 37.0821048,72.4532773 L37.0784821,72.4532773 C23.4460957,82.1793973 12.6901683,95.670699 6.35036595,111.314562 C6.11851032,111.897697 5.8794092,112.480832 5.65842181,113.067567 C4.919382,115.01855 4.22381511,116.991131 3.62243958,119.003308 C3.57896665,119.16529 3.52824823,119.323672 3.47752981,119.485654 C3.47028432,119.514451 3.46666158,119.546848 3.45941609,119.575644 C2.76747195,121.940582 2.18783289,124.319918 1.70238517,126.702853 C1.22418293,129.096587 0.836549307,131.522718 0.561220749,133.981245 C0.463406657,134.819952 0.416310982,135.655059 0.343856099,136.490166 C0.242419262,137.670835 0.16271889,138.847904 0.112000471,140.028573 C0.0612820527,141.079656 0.0141863784,142.134339 0.00331814589,143.178223 C-0.0111728308,144.898832 0.0214318668,146.612242 0.108377727,148.318453 C0.148227913,149.211153 0.224305541,150.096655 0.29313768,150.982157 C0.416310982,152.48679 0.575711726,153.987823 0.767717168,155.485257 C0.869154005,156.241173 0.966968097,157.000688 1.08651866,157.749405 C1.3690927,159.538407 1.71687614,161.316609 2.11175526,163.084013 C2.24579679,163.677947 2.37621558,164.27548 2.52112535,164.865815 C2.99932758,166.805999 3.53549372,168.728186 4.140492,170.625175 C4.32162921,171.186713 4.51725739,171.730253 4.70201735,172.280991 C5.24905172,173.879214 5.83955902,175.459439 6.47716199,177.021665 C6.80320897,177.827975 7.14736967,178.630686 7.49877585,179.426198 C8.06392394,180.704056 8.66892222,181.971115 9.29565696,183.223776 C9.77023645,184.166872 10.2411932,185.106367 10.7447546,186.031464 C10.9584965,186.416622 11.1903522,186.79098 11.4077168,187.172538 C16.5049179,196.131943 23.130917,204.123055 30.9379307,210.785916 C34.1223228,213.507213 39.0492549,212.574917 41.1468238,208.960918 C42.7987951,206.120834 42.1394557,202.514034 39.6071575,200.408268 C38.7413216,199.691948 37.9588089,199.026021 37.4987204,198.601269 C37.1762962,198.302502 36.8719856,197.992936 36.5531842,197.68697 C35.3105829,196.495502 34.0933409,195.275238 32.944931,193.990181 C32.6442432,193.648219 32.321819,193.327854 32.0211312,192.982293 C30.7133205,191.492058 29.474342,189.94423 28.2860819,188.349607 C27.9636577,187.917655 27.648479,187.478504 27.336923,187.039353 C26.1667766,185.397935 25.0401032,183.72772 24.0003756,181.992713 C21.4753229,177.766782 19.3705085,173.270882 17.7149144,168.562604 L17.7149144,168.555405 C17.3345263,167.471926 17.0338385,166.356049 16.7077916,165.247373 C16.3563854,164.070303 15.9687517,162.914832 15.6753095,161.716165 C15.1753708,159.682391 14.7696234,157.61262 14.4399537,155.517653 L14.4399537,155.510454 C14.4001035,155.265681 14.3421396,155.020908 14.3095349,154.776135 L14.3095349,154.772536 C14.2986667,154.693345 14.2950439,154.610554 14.2841757,154.531363 C13.954506,152.206021 13.7190276,149.851882 13.6067225,147.465347 C13.4907947,144.996021 13.4980402,142.497899 13.6320817,139.974579 C13.7443868,137.876012 13.9798652,135.806242 14.2696847,133.75087 C14.3312714,133.318918 14.3856125,132.890566 14.4544447,132.462213 C14.7696234,130.504031 15.1536343,128.567446 15.6209683,126.659658 C15.7187824,126.245704 15.8383329,125.842548 15.9470153,125.435794 C16.3926128,123.747581 16.8889288,122.084566 17.4504541,120.446748 C17.5663819,120.097586 17.6678188,119.748425 17.7946148,119.402864 C18.4213495,117.649858 19.1350302,115.929249 19.8921837,114.233838 C20.142153,113.6723 20.3993679,113.110762 20.6674509,112.556424 C21.43185,110.947403 22.2360992,109.363578 23.1128033,107.82295 C23.427982,107.268611 23.7721427,106.73587 24.1018124,106.188731 C24.7575291,105.090853 25.453096,104.014572 26.1667766,102.949091 C26.5906377,102.319161 27.010876,101.682031 27.4564735,101.0629 C28.383896,99.7670441 29.3656597,98.5035845 30.3764053,97.2689216 C30.9451762,96.5705991 31.5393062,95.8938743 32.1334363,95.2135498 C32.8145122,94.4396358 33.5173245,93.6837197 34.2310051,92.9386024 C35.2127688,91.9091168 36.2198917,90.9120275 37.2596193,89.9365358 C37.9298269,89.3102054 38.6072801,88.6874745 39.2992242,88.0827417 C40.0636233,87.413216 40.831645,86.7580888 41.625026,86.1209595 C42.7589449,85.2066611 43.9182231,84.3211594 45.1101059,83.4716537 C45.1101059,83.4716537 45.1137287,83.4716537 45.1137287,83.4680541 C45.8781277,82.9209149 46.6570177,82.4061721 47.4431532,81.8878296 C47.4974943,81.8518336 47.5482127,81.8230368 47.6025539,81.7870408 C58.3657269,74.7246251 70.9728766,70.2827184 84.4929579,69.5699975 C90.4415038,69.2568323 96.230649,69.7103819 101.831412,70.7074712 C102.153836,70.7650648 102.479883,70.8370568 102.798684,70.89825 C105.066522,71.3338017 107.29451,71.8629429 109.482647,72.4964725 C110.033304,72.654855 110.583961,72.8204366 111.130996,72.9896178 C117.249811,74.9154039 123.017219,77.5755085 128.349899,80.9051388 C128.422354,80.948334 128.494809,80.9987284 128.570886,81.0455232 L128.570886,81.0491228 C130.346031,82.1613993 132.07408,83.3312693 133.744165,84.5875298 C134.157158,84.9006951 134.548414,85.2354579 134.954162,85.5558223 L134.957784,85.5558223 C138.453732,88.2987177 141.699711,91.3295811 144.652248,94.6376138 C144.804403,94.8139942 144.952935,94.9903746 145.108713,95.166755 C145.108713,95.1703546 145.112336,95.1703546 145.112336,95.1703546 C146.488979,96.7433799 147.804035,98.3596004 149.046636,100.040614 L149.050259,100.044213 C149.1046,100.119805 149.155319,100.195397 149.20966,100.270988 C149.213283,100.274588 149.216905,100.278187 149.220528,100.281787 C150.089987,101.469655 150.915972,102.697119 151.716599,103.935381 C163.631804,122.520117 167.113262,146.039906 159.570708,168.055061 C158.447658,171.334297 160.088761,174.9087 163.323871,176.193757 L163.334739,176.197357 C167.029938,177.665993 171.24319,175.754606 172.51115,172.003822 C176.329523,160.690279 177.680806,149.041972 176.829461,137.696032 L176.829461,137.692433 Z" id="Fill-14" fill="#FF6143" opacity="0.15"></path>
                    <path d="M110.788646,205.388675 C108.158534,205.439069 106.068211,207.59163 106.118929,210.20494 C106.169648,212.81465 108.336049,214.89162 110.966161,214.841225 C113.589028,214.79443 115.682974,212.63827 115.632255,210.02856 C115.581537,207.41525 113.415136,205.34188 110.788646,205.388675" id="Fill-15" fill="#FF6143"></path>
                    <path d="M183.614861,60.3186649 C181.147773,61.1465729 179.821848,63.8066775 180.658702,66.2544057 C181.491933,68.7057335 184.165518,70.0195876 186.632607,69.1916795 C189.099696,68.3637715 190.421998,65.7072665 189.585144,63.2559387 C188.755535,60.8082105 186.08195,59.4943564 183.614861,60.3186649" id="Fill-16" fill="#FF6143"></path>
                    <path d="M32.8112517,28.6285041 C30.612246,29.3664221 29.4312314,31.7349591 30.1738939,33.9235161 C30.9201792,36.1084734 33.3039449,37.2819431 35.5029506,36.5440251 C37.7055791,35.806107 38.8865937,33.4339704 38.1439311,31.2490131 C37.4012686,29.0604561 35.0102574,27.890586 32.8112517,28.6285041" id="Fill-17" fill="#FF6143"></path>
                    <path d="M51.016628,180.325018 C48.8936999,180.364614 47.2018784,182.10682 47.2417286,184.216186 C47.2815788,186.325552 49.034987,188.006565 51.157915,187.96697 C53.2844659,187.923774 54.9726647,186.185167 54.9328145,184.072202 C54.8929643,181.962836 53.1395561,180.285423 51.016628,180.325018" id="Fill-18" fill="#002245"></path>
                    <path d="M130.430441,29.0716149 C128.173471,29.8311305 126.959852,32.2644603 127.724251,34.5070113 C128.485027,36.7495622 130.937625,37.9554283 133.194595,37.1959127 C135.451564,36.4399966 136.665184,34.0030672 135.900785,31.7605163 C135.136386,29.5179653 132.68741,28.3120992 130.430441,29.0716149" id="Fill-19" fill="#FF6143"></path>
                    <path d="M128.265489,0.197421336 C126.31283,0.852548584 125.262234,2.95831474 125.925196,4.90209888 C126.580913,6.84228343 128.700218,7.8825679 130.6565,7.22744065 C132.609159,6.57231341 133.656132,4.46654725 133.000416,2.52276311 C132.337453,0.582578564 130.218148,-0.461305513 128.265489,0.197421336" id="Fill-20" fill="#002245"></path>
                    <path d="M128.856359,176.750255 C116.832471,187.199895 98.4397984,185.835646 87.1440821,174.608493 L51.898404,139.587982 C49.0690407,136.776694 49.0690407,132.2196 51.898404,129.408312 C54.7277672,126.593425 59.3141613,126.593425 62.1435245,129.408312 L97.6536629,164.684395 C103.384844,170.382562 112.695297,171.325658 118.959021,166.210626 C126.146546,160.339678 126.526934,149.720857 120.111054,143.345965 L84.1118452,107.576737 C81.282482,104.765449 81.282482,100.208355 84.1118452,97.3970673 C86.9448311,94.5857795 91.5312253,94.5857795 94.3605885,97.3970673 L130.356175,133.166295 C142.543086,145.271751 142.04677,165.285528 128.856359,176.750255" id="Fill-21" fill="#FF6143"></path>
                    <path d="M177.070012,221.576437 L177.070012,221.576437 C174.240648,224.387725 169.650632,224.387725 166.824891,221.576437 L120.109605,175.35397 L130.354726,165.174301 L177.070012,211.396768 C179.899375,214.204456 179.899375,218.765149 177.070012,221.576437" id="Fill-22" fill="#FF6143"></path>
                    <path d="M109.946358,144.895233 L99.7012379,155.074902 L68.0058491,123.581999 C65.1764859,120.770712 65.1764859,116.213618 68.0058491,113.40233 C70.8352123,110.591042 75.4216064,110.591042 78.2509697,113.40233 L109.946358,144.895233 Z" id="Fill-23" fill="#FF6143"></path>
                    <polygon id="Fill-24" fill="#FF6143" points="126.054166 139.07036 93.8371019 171.081605 83.5919814 160.898336 115.809045 128.88709"></polygon>
                    <path d="M118.639133,171.712615 C112.860856,176.43529 104.524922,175.942145 98.7611358,171.370653 L120.526583,149.747854 C126.091118,156.187539 125.507856,166.097238 118.639133,171.712615 M124.265255,185.297506 L166.502829,227.078066 C169.332192,229.889354 173.922209,229.889354 176.74795,227.078066 C179.577313,224.266778 179.577313,219.706085 176.74795,216.898397 L134.532112,175.139434 C141.47329,163.674707 139.977096,148.541988 130.036286,138.664685 L94.0407002,102.899056 C91.211337,100.087769 86.6213201,100.087769 83.7955796,102.899056 C80.9662164,105.710344 80.9662164,110.267438 83.7955796,113.078726 L110.364785,139.481794 L104.503185,145.302347 L77.9339795,118.902879 C75.1009936,116.091591 70.5145995,116.091591 67.6852363,118.902879 C64.8558731,121.714167 64.8558731,126.271261 67.6852363,129.082549 L94.2580648,155.485617 L88.392842,161.30617 L61.8236362,134.906702 C58.994273,132.095414 54.4078788,132.095414 51.5748929,134.906702 C48.7491524,137.721589 48.7491524,142.275084 51.5748929,145.089971 L86.8241938,180.110482 C96.8555724,190.081375 112.4696,192.248334 124.265255,185.297506" id="Fill-25" fill-opacity="0.15" fill="#FF6143"></path>
                </g>
            </g>
        </g>
    </g>
</svg>