<?xml version="1.0" encoding="UTF-8"?>
<svg width="647px" height="791px" viewBox="0 0 647 791" version="1.1" xmlns="http://www.w3.org/2000/svg" xmlns:xlink="http://www.w3.org/1999/xlink">
    <!-- Generator: Sketch 53.2 (72643) - https://sketchapp.com -->
    <title>Backround logo</title>
    <desc>Created with Sketch.</desc>
    <g id="Web" stroke="none" stroke-width="1" fill="none" fill-rule="evenodd">
        <g id="2.0.2-Dashboard-Statistics" transform="translate(-637.000000, -277.000000)">
            <g id="Backround-logo" transform="translate(637.000000, 277.000000)">
                <g id="logo-icon">
                    <path d="M203.482901,725.870155 C196.685546,737.566109 202.175243,752.354803 214.82005,757.276186 C218.027514,758.515736 221.25965,759.706195 224.528795,760.847563 C224.664495,760.884382 224.800196,760.908927 224.92356,760.958018 C229.47569,762.528934 234.089503,764.001667 238.740325,765.363945 C239.196771,765.498945 239.665555,765.584855 240.109665,765.719855 C244.43974,766.959405 248.819161,768.125319 253.235592,769.180778 C254.567922,769.49987 255.924926,769.733053 257.257257,770.039872 C260.834812,770.837602 264.412368,771.635333 268.039268,772.310335 C270.346175,772.72761 272.69009,773.046702 275.021669,773.414885 C277.72334,773.844432 280.400338,774.335343 283.126682,774.703526 C288.209278,775.378529 293.316546,775.918531 298.47316,776.335806 C300.15091,776.483079 301.791651,776.421715 303.37071,776.225351 C306.541164,775.783531 309.526572,774.691254 312.166561,773.071247 C318.754198,769.033504 323.195301,761.731203 323.195301,753.410262 L323.195301,753.397989 C323.195301,747.457966 320.913067,742.008854 317.138129,737.934292 C316.188227,736.915652 315.15197,735.982921 314.029357,735.148372 C310.365447,732.411544 305.825653,730.730173 300.866421,730.595173 C292.847763,730.374263 284.940133,728.643802 277.044838,727.256978 C276.366336,727.146523 275.700171,727.023795 275.046342,726.901068 C267.915904,725.53879 260.871822,723.931056 253.963439,721.991958 C252.766808,721.64832 251.594851,721.255591 250.422893,720.911953 C244.143667,719.034219 237.963132,716.947847 231.893624,714.640565 C231.881288,714.628293 231.868951,714.628293 231.856615,714.628293 C221.691424,710.639641 210.09521,714.456474 204.642523,723.869692 L203.482901,725.870155 Z" id="Fill-11" fill="#002245"></path>
                    <path d="M623.739546,455.665376 L623.739546,455.653103 C623.801228,454.671281 623.912255,453.701732 623.8259,452.683091 C623.159735,444.619878 622.086468,436.66712 620.803483,428.812544 C620.593764,427.560721 620.408718,426.308898 620.199,425.08162 C618.866669,417.570682 617.250601,410.182471 615.350796,402.867897 C615.017713,401.530165 614.647621,400.18016 614.277529,398.842427 C612.266696,391.466489 610.033808,384.176461 607.480174,377.021433 C607.22111,376.309612 606.937373,375.610064 606.665972,374.898243 C604.062992,367.780034 601.213284,360.796825 598.092176,353.948616 C597.820775,353.371796 597.59872,352.794975 597.339655,352.230428 C594.107519,345.259491 590.57931,338.435828 586.829045,331.759439 C586.273907,330.765344 585.718769,329.771249 585.151295,328.789427 C581.351685,322.186674 577.317683,315.731195 573.049289,309.447534 C570.569673,305.80252 542.072596,271.082839 540.246809,269.205104 C534.69543,263.473718 528.90966,257.975515 522.914171,252.698222 C522.50707,252.342311 522.087632,251.974128 521.680531,251.630491 C502.892198,235.270881 482.080696,221.169463 459.628453,209.7926 C459.529761,209.743509 459.455743,209.694418 459.357052,209.6576 C429.034187,194.341177 395.77526,183.958409 360.665874,179.613847 L358.852423,179.392937 C353.276372,178.74248 347.650975,178.239296 342.000905,177.871113 L341.495112,177.834294 C336.215134,177.515202 330.92282,177.355656 325.58116,177.294292 C324.96434,177.294292 324.34752,177.269747 323.7307,177.269747 C318.857823,177.245201 313.947937,177.392474 309.013378,177.613384 C308.026466,177.662475 307.039555,177.662475 306.052643,177.723839 C300.303882,178.018386 294.518111,178.484751 288.707668,179.135208 L288.695332,179.135208 C281.022093,179.98203 273.472218,181.233853 265.984025,182.657495 C264.195247,183.001132 262.418806,183.34477 260.642365,183.712953 C253.487254,185.210232 246.406162,186.928421 239.448434,188.928883 C237.671993,189.444339 235.944897,190.045705 234.180792,190.561162 C228.765114,192.156623 223.460463,194.071176 218.168149,196.03482 C216.070961,196.808004 213.961437,197.556644 211.888922,198.37892 C205.73306,200.821202 199.675889,203.484394 193.729746,206.319405 C191.410503,207.411682 189.140606,208.589868 186.858372,209.755782 C182.935398,211.768517 178.975415,213.756707 175.188141,216.002625 C172.597497,217.548994 169.908163,218.935818 167.329855,220.49446 C163.591927,222.728105 160.039045,225.244024 156.399807,227.624943 C153.562436,229.502677 150.614037,231.245411 147.863021,233.221328 L147.850684,233.221328 C101.428821,266.382366 64.8020577,312.380727 43.2133624,365.718207 C42.423833,367.706397 41.6096308,369.694586 40.8571106,371.695049 C38.3404855,378.346893 35.9718972,385.072374 33.9240553,391.932855 C33.7760185,392.48513 33.603309,393.025132 33.4305994,393.577407 C33.4059266,393.675589 33.3935902,393.786044 33.3689174,393.884226 C31.0126655,401.947439 29.038842,410.059744 27.3857647,418.184321 C25.7573603,426.345716 24.4373658,434.617566 23.4997996,442.999872 C23.1667169,445.859428 23.0063437,448.706712 22.7596157,451.553996 C22.4141966,455.579466 22.1427959,459.592664 21.9700863,463.618134 C21.7973768,467.201784 21.6370036,470.797707 21.5999944,474.356812 C21.5506488,480.210926 21.6616764,486.065039 21.9577499,491.882335 C22.0934503,494.925983 22.3525146,497.945086 22.5869062,500.964188 C23.0063437,506.094208 23.5491452,511.211955 24.2029742,516.31743 C24.5483934,518.894713 24.8814761,521.471995 25.2885772,524.037005 C26.2508162,530.136575 27.4351103,536.199325 28.7797776,542.225258 C29.2362243,544.250266 29.6803346,546.287546 30.1737905,548.312554 C31.802195,554.915307 33.6279818,561.468969 35.6881601,567.936722 C36.30498,569.851275 36.9711454,571.704464 37.6003017,573.582198 C39.4630977,579.03131 41.4739304,584.419059 43.6451363,589.745443 C44.7554121,592.494545 45.9273698,595.231373 47.1240004,597.943657 C49.0484784,602.300492 51.1086567,606.620509 53.2428534,610.891434 C54.8589215,614.106901 56.4626531,617.310096 58.1774123,620.464199 C58.9052598,621.777386 59.6947892,623.053754 60.434973,624.354669 C77.792284,654.901606 100.355555,682.147166 126.940491,704.864073 C137.784184,714.142291 154.561684,710.963642 161.704458,698.641776 C167.329855,688.958556 165.084631,676.661236 156.461489,669.481662 C153.513091,667.03938 150.848429,664.768917 149.281706,663.320729 C148.183767,662.302089 147.14751,661.24663 146.061907,660.203444 C141.830522,656.141156 137.685493,651.980685 133.774855,647.599304 C132.750934,646.445664 131.652995,645.341114 130.629074,644.162927 C126.175634,639.081999 121.956586,633.804705 117.910248,628.367866 C116.812309,626.895133 115.739042,625.397854 114.678112,623.900576 C110.693456,618.30419 106.856836,612.609623 103.31629,606.694145 C94.7178211,592.285907 87.5503743,576.957211 81.9126407,560.904422 L81.9126407,560.879876 C80.617319,557.185771 79.593398,553.38121 78.4831223,549.601196 C77.2864917,545.600271 75.9664972,541.648438 74.967249,537.561603 C73.2648262,530.627486 71.8831497,523.57064 70.7605376,516.427885 L70.7605376,516.403339 C70.6248372,515.568791 70.4274548,514.734242 70.3164273,513.899693 L70.3164273,513.88742 C70.2794181,513.617419 70.2670817,513.335146 70.2300725,513.065144 C69.1074603,505.136932 68.3055945,497.110537 67.9231662,488.973687 C67.5284015,480.554563 67.5530743,472.037257 68.009521,463.434042 C68.3919493,456.279014 69.1938151,449.222169 70.1807269,442.214414 C70.3904456,440.741681 70.5754916,439.281221 70.8098832,437.820761 C71.8831497,431.144371 73.1908078,424.541618 74.7822031,418.037047 C75.1152858,416.625678 75.5223869,415.251127 75.8924788,413.864304 C77.4098557,408.108372 79.0999421,402.43835 81.0120837,396.854238 C81.4068484,395.663778 81.7522675,394.473319 82.1840414,393.295133 C84.3182382,387.318291 86.7485084,381.451905 89.3268155,375.671428 C90.1780269,373.756875 91.0539111,371.842322 91.9668045,369.952315 C94.5697843,364.466384 97.3084645,359.066363 100.293873,353.801343 C101.367139,351.923608 102.539097,350.107237 103.661709,348.241776 C105.894597,344.498579 108.263185,340.82902 110.693456,337.196278 C112.136814,335.048542 113.567836,332.876261 115.085213,330.765344 C118.243331,326.347145 121.586494,322.039401 125.028349,317.829839 C126.965164,315.448921 128.988333,313.141639 131.011502,310.822085 C133.330745,308.183438 135.724006,305.606155 138.154276,303.065691 C141.49744,299.555677 144.926958,296.156118 148.467504,292.830196 C150.749738,290.694733 153.056644,288.571543 155.412896,286.509717 C158.015876,284.226981 160.631192,281.993336 163.332863,279.821055 C167.194155,276.70377 171.141802,273.684667 175.200477,270.788292 C175.200477,270.788292 175.212813,270.788292 175.212813,270.77602 C177.815793,268.910558 180.468119,267.155551 183.145117,265.388271 C183.330163,265.265544 183.502872,265.167361 183.687918,265.044634 C220.339355,240.977722 263.270017,225.833117 309.309452,223.390835 C329.565816,222.323104 349.279379,223.869473 368.351449,227.269032 C369.449389,227.465396 370.559664,227.710852 371.645267,227.919489 C379.367852,229.404495 386.954736,231.208593 394.40592,233.368601 C396.281053,233.908603 398.156185,234.473151 400.018981,235.049971 C420.855156,241.615906 440.4947,250.685487 458.653877,262.037804 C458.900605,262.185077 459.147333,262.356896 459.406398,262.516442 L459.406398,262.528715 C465.451232,266.321002 471.335694,270.309654 477.022773,274.592853 C478.429122,275.660584 479.761453,276.801952 481.14313,277.894229 L481.155466,277.894229 C493.060089,287.246084 504.113501,297.57976 514.167665,308.858441 C514.685794,309.459807 515.191586,310.061172 515.722051,310.662538 C515.722051,310.674811 515.734387,310.674811 515.734387,310.687084 C520.422218,316.038014 524.900331,321.54849 529.131715,327.279876 L529.144051,327.279876 C529.329097,327.549877 529.501807,327.807605 529.686853,328.065333 C529.699189,328.077606 529.711526,328.089879 529.723862,328.102152 C532.684597,332.16444 535.497296,336.337184 538.22364,340.559018 C578.79805,403.923356 590.653328,484.113668 564.968949,559.17396 C561.157002,570.354458 566.733054,582.541324 577.749457,586.922705 L577.786466,586.934977 C590.369591,591.94227 604.716821,585.425426 609.03456,572.637195 C622.037123,534.063863 626.638599,494.349163 623.739546,455.665376" id="Fill-12" fill="#002245"></path>
                    <path d="M292.439429,748.95279 C288.763182,746.215961 284.235724,744.546864 279.276493,744.39959 C271.257834,744.17868 263.350204,742.448219 255.454909,741.061396 C254.776408,740.950941 254.122579,740.828213 253.456413,740.705485 C246.325975,739.343207 239.281893,737.735473 232.37351,735.796375 C231.17688,735.452737 230.004922,735.060009 228.832964,734.716371 C222.553738,732.850909 216.373203,730.764537 210.303695,728.444983 C210.291359,728.43271 210.279023,728.43271 210.266686,728.43271 C200.101495,724.444058 188.505281,728.260891 183.052594,737.67411 L181.892972,739.674572 C175.095618,751.370527 180.572978,766.15922 193.230122,771.080603 C196.437585,772.320154 199.669721,773.510613 202.938866,774.651981 C203.074567,774.688799 203.210267,774.725617 203.333631,774.774709 C207.885762,776.333351 212.511911,777.818357 217.150396,779.168362 C217.606843,779.303363 218.075626,779.389272 218.519736,779.524272 C222.849811,780.763823 227.229232,781.942009 231.645663,782.985195 C232.977994,783.304287 234.334997,783.53747 235.667328,783.844289 C239.244883,784.64202 242.834775,785.452023 246.449339,786.114753 C248.756246,786.5443 251.100161,786.851119 253.43174,787.219302 C256.133411,787.64885 258.81041,788.139761 261.536753,788.507944 C266.619349,789.182946 271.726617,789.722949 276.883232,790.140223 C278.560982,790.275223 280.201722,790.226132 281.780781,790.029768 C284.963572,789.600221 287.936643,788.495671 290.576633,786.875665 C297.164269,782.837922 301.605372,775.535621 301.605372,767.214679 L301.605372,767.202406 C301.605372,761.262383 299.323138,755.825544 295.548201,751.750983 C294.598298,750.732342 293.562041,749.787339 292.439429,748.95279" id="Fill-13" fill="#FF6143" opacity="0.15"></path>
                    <path d="M602.15085,469.459975 C602.212532,468.478153 602.32356,467.508604 602.237205,466.489963 C601.57104,458.42675 600.497773,450.473992 599.214788,442.607143 C599.005069,441.367593 598.820023,440.11577 598.610304,438.888492 C597.277974,431.377554 595.661905,423.989343 593.7621,416.674769 C593.429018,415.337037 593.058926,413.987032 592.688834,412.649299 C590.678001,405.273361 588.445113,397.983333 585.891479,390.828305 C585.632414,390.116484 585.348677,389.416936 585.077277,388.705115 C582.474297,381.599178 579.624589,374.603696 576.50348,367.755488 C576.23208,367.178668 576.010025,366.601847 575.75096,366.037299 C572.518824,359.066363 568.990615,352.2427 565.24035,345.566311 C564.685212,344.572216 564.130074,343.578121 563.5626,342.596299 C559.762989,335.993546 555.728987,329.538066 551.460594,323.254406 C548.980978,319.609391 520.4839,284.889711 518.658114,283.011976 C513.106735,277.28059 507.320965,271.782387 501.325475,266.505094 C500.918374,266.149183 500.498937,265.781 500.091836,265.437362 C481.303503,249.077753 460.492,234.976335 438.039757,223.599472 C437.941066,223.550381 437.867048,223.513563 437.768357,223.464472 C407.445492,208.135776 374.186565,197.765281 339.077178,193.420718 L337.263728,193.199809 C331.687676,192.549351 326.062279,192.046168 320.412209,191.677984 L319.906417,191.641166 C314.626439,191.322074 309.334125,191.162528 303.992465,191.101164 C303.375645,191.101164 302.758825,191.076618 302.142005,191.076618 C297.269128,191.052073 292.359242,191.199346 287.424683,191.420256 C286.437771,191.469347 285.450859,191.469347 284.463948,191.530711 C278.715187,191.825258 272.929416,192.291623 267.118973,192.94208 L267.106637,192.94208 C259.433398,193.788902 251.883522,195.040725 244.395329,196.464367 C242.606552,196.808004 240.83011,197.151642 239.053669,197.519825 C231.898559,199.017104 224.817467,200.735292 217.859739,202.735755 C216.083298,203.251211 214.356202,203.852577 212.592097,204.368034 C207.176419,205.963495 201.871768,207.878047 196.579453,209.841692 C194.482266,210.614876 192.372742,211.363516 190.300227,212.185792 C184.144365,214.628074 178.087194,217.291266 172.14105,220.126277 C169.821808,221.218554 167.551911,222.39674 165.269677,223.562654 C161.334366,225.575389 157.386719,227.563579 153.599445,229.809496 C150.996465,231.355866 148.319467,232.74269 145.74116,234.301332 C142.003232,236.534977 138.450349,239.050896 134.811112,241.431814 C131.973741,243.309549 129.025342,245.052283 126.274325,247.0282 L126.261989,247.0282 C79.840126,280.189238 43.2133624,326.187599 21.6246672,379.525079 C20.8351378,381.513269 20.0209355,383.501458 19.2684153,385.501921 C16.7517903,392.153765 14.383202,398.879245 12.33536,405.739727 C12.1873233,406.292002 12.0146137,406.832004 11.8419042,407.384279 C11.8172314,407.482461 11.804895,407.592916 11.7802222,407.691098 C9.42397029,415.754311 7.45014672,423.866615 5.79706948,431.991193 C4.16866504,440.152588 2.84867053,448.424438 1.91110434,456.806744 C1.57802161,459.6663 1.41764845,462.513584 1.1709205,465.360868 C0.825501381,469.386338 0.55410064,473.399536 0.381391078,477.425006 C0.208681516,481.008656 0.0483083518,484.604579 0.01129916,488.163684 C-0.0380464292,494.03007 0.0729811464,499.871911 0.369054681,505.689207 C0.504755051,508.732855 0.763819394,511.751958 0.998210942,514.77106 C1.41764845,519.90108 1.96044993,525.018827 2.61427899,530.124302 C2.95969811,532.701585 3.29278084,535.29114 3.69988195,537.843877 C4.66212093,543.943446 5.84641507,550.006197 7.19108238,556.03213 C7.64752908,558.057138 8.09163938,560.094418 8.58509527,562.107154 C10.2134997,568.722179 12.0392865,575.275841 14.0994649,581.743594 C14.7162847,583.658146 15.3824502,585.511336 16.0116064,587.38907 C17.8744024,592.838182 19.8852352,598.22593 22.0564411,603.552315 C23.1667169,606.301416 24.3386746,609.038245 25.5353051,611.750529 C27.4597831,616.107364 29.5199615,620.427381 31.6541582,624.698306 C33.2702262,627.913773 34.8739579,631.116968 36.5887171,634.271071 C37.3165645,635.584258 38.106094,636.860626 38.8462778,638.16154 C56.2035888,668.708478 78.7668594,695.954038 105.351796,718.670945 C116.195489,727.949163 132.972989,724.770514 140.115763,712.448648 C145.74116,702.765428 143.495936,690.468108 134.872794,683.288534 C131.924395,680.846252 129.259733,678.575789 127.693011,677.127601 C126.595072,676.108961 125.558814,675.053502 124.473211,674.010316 C120.241827,669.948028 116.096798,665.787557 112.18616,661.406176 C111.162239,660.240263 110.064299,659.147986 109.040378,657.969799 C104.586939,652.888871 100.367891,647.611577 96.3215527,642.174738 C95.2236134,640.702005 94.1503468,639.204726 93.0894166,637.707448 C89.1047603,632.111062 85.2681408,626.416495 81.7275947,620.501017 C73.1291258,606.092779 65.961679,590.764083 60.3239455,574.711293 L60.3239455,574.686748 C59.0286238,570.992643 58.0047028,567.188082 56.894427,563.408068 C55.6977965,559.39487 54.377802,555.455309 53.3785538,551.368475 C51.676131,544.434357 50.2944545,537.377512 49.1718423,530.234757 L49.1718423,530.210211 C49.036142,529.375662 48.8387596,528.541114 48.727732,527.706565 L48.727732,527.694292 C48.6907228,527.424291 48.6783864,527.142017 48.6413772,526.872016 C47.5187651,518.943804 46.7168993,510.917409 46.3344709,502.780559 C45.9397062,494.361435 45.964379,485.844129 46.4208257,477.240914 C46.803254,470.085886 47.6051199,463.029041 48.5920317,456.021286 C48.8017504,454.548553 48.9867964,453.088093 49.2211879,451.627633 C50.2944545,444.951243 51.6021126,438.34849 53.1935078,431.843919 C53.5265906,430.43255 53.9336917,429.057999 54.3037836,427.671176 C55.8211605,421.915244 57.5112469,416.245222 59.4233885,410.66111 C59.8181532,409.47065 60.1635723,408.280191 60.5953462,407.102005 C62.7295429,401.125163 65.1598132,395.258777 67.7381202,389.4783 C68.5893316,387.563747 69.4652159,385.649194 70.3781092,383.759187 C72.9810891,378.273256 75.7197693,372.873235 78.7051774,367.620487 C79.778444,365.73048 80.9504017,363.914109 82.0730139,362.048648 C84.3059018,358.305451 86.6744901,354.635891 89.1047603,351.00315 C90.5481188,348.855414 91.9791409,346.683133 93.4965178,344.572216 C96.6546355,340.154017 99.9977991,335.846273 103.439654,331.636711 C105.376468,329.255793 107.399637,326.948511 109.422807,324.628956 C111.742049,321.99031 114.13531,319.413027 116.565581,316.872563 C119.908744,313.362549 123.338263,309.96299 126.878809,306.637068 C129.161042,304.501605 131.467949,302.378415 133.8242,300.316589 C136.42718,298.033853 139.042497,295.800208 141.744168,293.627927 C145.60546,290.510642 149.553107,287.491539 153.611782,284.595164 C153.611782,284.595164 153.624118,284.595164 153.624118,284.582892 C156.227098,282.71743 158.879423,280.962423 161.556422,279.195143 C161.741468,279.072416 161.914177,278.974233 162.099223,278.851506 C198.750659,254.772321 241.681322,239.627717 287.720757,237.197707 C307.977121,236.129976 327.690684,237.676345 346.762754,241.075904 C347.860693,241.272268 348.970969,241.517724 350.056572,241.726361 C357.779157,243.211367 365.366041,245.015465 372.817225,247.175473 C374.692357,247.715475 376.56749,248.280023 378.430286,248.856843 C399.266461,255.422778 418.906005,264.492359 437.065182,275.844676 C437.31191,275.991949 437.558638,276.163768 437.817702,276.323314 L437.817702,276.335587 C443.862537,280.127874 449.746998,284.116526 455.434078,288.399725 C456.840427,289.467456 458.172758,290.608824 459.554434,291.701101 L459.566771,291.701101 C471.471394,301.052956 482.524806,311.386632 492.57897,322.665312 C493.097098,323.266678 493.602891,323.868044 494.133356,324.46941 C494.133356,324.481683 494.145692,324.481683 494.145692,324.481683 C498.833523,329.844886 503.311635,335.355362 507.54302,341.086748 L507.555356,341.099021 C507.740402,341.356749 507.913112,341.614477 508.098158,341.872205 C508.110494,341.884478 508.12283,341.896751 508.135167,341.909024 C511.095902,345.959039 513.908601,350.144056 516.634944,354.36589 C557.209355,417.730228 569.064633,497.92054 543.380254,572.980832 C539.555971,584.16133 545.144359,596.348196 556.160761,600.729577 L556.197771,600.741849 C568.780896,605.749142 583.128126,599.232298 587.445865,586.444066 C600.448428,547.870734 605.049904,508.156034 602.15085,469.472248 L602.15085,469.459975 Z" id="Fill-14" fill="#FF6143" opacity="0.15"></path>
                    <path d="M377.264496,700.269146 C368.308272,700.440965 361.190171,707.780084 361.36288,716.690119 C361.53559,725.587881 368.912755,732.669272 377.86898,732.497453 C386.800531,732.337907 393.930969,724.986515 393.758259,716.088753 C393.58555,707.178718 386.208384,700.1096 377.264496,700.269146" id="Fill-15" fill="#FF6143"></path>
                    <path d="M625.256923,205.655448 C616.855836,208.478186 612.340715,217.547767 615.190422,225.893254 C618.027794,234.251014 627.132055,238.730577 635.533141,235.907838 C643.934228,233.0851 648.437013,224.027792 645.587305,215.670032 C642.76227,207.324545 633.658009,202.844982 625.256923,205.655448" id="Fill-16" fill="#FF6143"></path>
                    <path d="M111.730947,97.608391 C104.242753,100.12431 100.221088,108.199796 102.750049,115.661643 C105.291347,123.111218 113.408697,127.112142 120.89689,124.596223 C128.397419,122.080304 132.419085,113.992546 129.890123,106.542971 C127.361162,99.081124 119.21914,95.0924721 111.730947,97.608391" id="Fill-17" fill="#FF6143"></path>
                    <path d="M173.725044,614.81504 C166.495915,614.950041 160.734817,620.890064 160.870518,628.08191 C161.006218,635.273756 166.977035,641.005142 174.206163,640.870142 C181.447629,640.722869 187.19639,634.795118 187.060689,627.590999 C186.924989,620.399153 180.954173,614.68004 173.725044,614.81504" id="Fill-18" fill="#002245"></path>
                    <path d="M444.149975,99.1191696 C436.464399,101.708725 432.331706,110.005121 434.934686,117.65106 C437.52533,125.296999 445.877071,129.408378 453.562646,126.818823 C461.248222,124.24154 465.380915,115.932871 462.777935,108.286933 C460.174955,100.640994 451.83555,96.5296141 444.149975,99.1191696" id="Fill-19" fill="#FF6143"></path>
                    <path d="M436.777744,0.673104641 C430.128426,2.9067497 426.550871,10.0863231 428.808431,16.7136216 C431.041319,23.3286474 438.258112,26.8754794 444.919766,24.6418343 C451.569084,22.4081892 455.134303,15.2286158 452.901415,8.60131732 C450.643855,1.98629157 443.427062,-1.57281319 436.777744,0.673104641" id="Fill-20" fill="#002245"></path>
                    <path d="M438.78981,602.626948 C397.845308,638.254814 335.213419,633.603432 296.748532,595.324646 L176.727723,475.922818 C167.092997,466.337781 167.092997,450.800448 176.727723,441.21541 C186.362449,431.6181 201.980328,431.6181 211.615054,441.21541 L332.536421,561.488606 C352.052601,580.916409 383.757142,584.131876 405.086773,566.692262 C429.562185,546.675366 430.857507,510.47068 409.009747,488.735595 L286.422968,366.78103 C276.788241,357.195992 276.788241,341.658659 286.422968,332.073622 C296.07003,322.488585 311.687909,322.488585 321.322635,332.073622 L443.897079,454.028187 C485.396719,495.30153 483.706633,563.538159 438.78981,602.626948" id="Fill-21" fill="#FF6143"></path>
                    <path d="M602.969987,755.461042 L602.969987,755.461042 C593.335261,765.04608 577.705046,765.04608 568.082656,755.461042 L409.004813,597.866338 L443.892144,563.15893 L602.969987,720.753635 C612.604713,730.326399 612.604713,745.876005 602.969987,755.461042" id="Fill-22" fill="#FF6143"></path>
                    <path d="M374.396284,494.017798 L339.508952,528.725205 L231.577813,421.350697 C221.943086,411.765659 221.943086,396.228326 231.577813,386.643289 C241.212539,377.058251 256.830418,377.058251 266.465144,386.643289 L374.396284,494.017798 Z" id="Fill-23" fill="#FF6143"></path>
                    <polygon id="Fill-24" fill="#FF6143" points="429.247607 474.157993 319.540026 583.299781 284.652695 548.580101 394.360276 439.438312"></polygon>
                    <path d="M403.997469,585.451199 C384.320915,601.55308 355.934865,599.87171 336.307657,584.285285 L410.424732,510.562726 C429.373438,532.51872 427.387278,566.30567 403.997469,585.451199 M423.155894,631.768652 L566.98595,774.218752 C576.620676,783.803789 592.250892,783.803789 601.873281,774.218752 C611.508008,764.633715 611.508008,749.084109 601.873281,739.511344 L458.117244,597.134881 C481.753781,558.046092 476.658849,506.451346 442.807775,472.774851 L320.233332,350.832558 C310.598605,341.247521 294.96839,341.247521 285.346,350.832558 C275.711274,360.417596 275.711274,375.954929 285.346,385.539966 L375.821138,475.560771 L355.860847,495.405848 L265.385709,405.397316 C255.738647,395.812279 240.120768,395.812279 230.486041,405.397316 C220.851315,414.982354 220.851315,430.519687 230.486041,440.104724 L320.973515,530.125529 L301.000888,549.970606 L210.525751,459.962074 C200.891024,450.377037 185.273145,450.377037 175.626083,459.962074 C166.003693,469.559384 166.003693,485.084445 175.626083,494.681755 L295.659228,614.083583 C329.818712,648.07917 382.988585,655.467381 423.155894,631.768652" id="Fill-25" fill-opacity="0.15" fill="#FF6143"></path>
                </g>
            </g>
        </g>
    </g>
</svg>